<svg xmlns="http://www.w3.org/2000/svg" viewBox="0 0 48 48">
  <defs>
    <linearGradient id="bg" x1="0" y1="0" x2="1" y2="1">
      <stop offset="0" stop-color="#16395c"/>
      <stop offset="1" stop-color="#0b1d31"/>
    </linearGradient>
    <linearGradient id="wing" x1="0" y1="1" x2="1" y2="0">
      <stop offset="0" stop-color="#fff3b8"/>
      <stop offset="1" stop-color="#ecd67a"/>
    </linearGradient>
  </defs>
  <rect width="48" height="48" rx="11" fill="url(#bg)"/>
  <path d="M8.5 19.6l11 2.9-.4 1.2z" fill="#fff3b8"/>
  <path d="M23 20.6C25 13 31 8.2 41 7c-4.6 3.2-7.6 8-10 14.6z" fill="url(#wing)"/>
  <path d="M25.2 22.6c3.6-4.4 8.4-6.6 14.8-6.8-4 2.2-6.8 5.2-8.6 9.4z" fill="#f3df8e" opacity=".85"/>
  <path d="M18.6 23.6c2.4 6.4 7.2 9.6 13.6 10.6l6.6 6.2-2-7.4c-3.4-4.4-7.4-8.4-11.6-12.2z" fill="#fcf0b2"/>
  <circle cx="21.6" cy="22" r="3.4" fill="#fcf0b2"/>
  <circle cx="21" cy="21.3" r=".8" fill="#0b1d31"/>
</svg>
